<?xml version="1.0" standalone="no"?>
<!DOCTYPE svg PUBLIC "-//W3C//DTD SVG 20010904//EN"
 "http://www.w3.org/TR/2001/REC-SVG-20010904/DTD/svg10.dtd">
<svg version="1.0" xmlns="http://www.w3.org/2000/svg"
 width="1280.000000pt" height="1008.000000pt" viewBox="0 0 1280.000000 1008.000000"
 preserveAspectRatio="xMidYMid meet">
<metadata>
Created by potrace 1.15, written by Peter Selinger 2001-2017
</metadata>
<g transform="translate(0.000000,1008.000000) scale(0.100000,-0.100000)"
fill="#000000" stroke="none">
<path d="M5325 10052 c-184 -63 -202 -79 -1030 -844 -3079 -2846 -4057 -3755
-4101 -3810 -71 -89 -90 -118 -125 -188 -42 -85 -58 -142 -65 -230 -13 -151
43 -275 201 -452 109 -121 90 -103 1675 -1529 602 -541 1567 -1410 2143 -1929
577 -520 1076 -966 1109 -991 75 -57 135 -79 219 -79 63 0 69 2 131 47 56 40
69 56 91 108 33 80 39 126 26 225 -28 227 -166 643 -534 1614 -58 153 -104
281 -102 282 2 2 163 44 358 93 513 130 946 214 1319 256 286 32 578 36 2275
33 l1680 -4 95 -22 c232 -53 474 -165 885 -411 382 -229 537 -295 694 -293
131 1 223 35 304 111 128 120 193 298 217 601 8 94 10 825 8 2415 -4 2102 -5
2289 -21 2395 -63 416 -207 628 -457 670 -183 31 -351 -36 -776 -306 -437
-279 -653 -383 -895 -429 -71 -13 -299 -15 -1893 -15 -1159 0 -1860 4 -1947
10 -372 29 -871 109 -1314 211 -174 40 -509 121 -513 124 -2 1 63 141 144 311
426 898 548 1180 619 1427 39 135 48 201 42 300 -6 118 -37 188 -109 251 -91
80 -212 96 -353 48z"/>
</g>
</svg>
