<?xml version="1.0" standalone="no"?>
<!DOCTYPE svg PUBLIC "-//W3C//DTD SVG 20010904//EN"
 "http://www.w3.org/TR/2001/REC-SVG-20010904/DTD/svg10.dtd">
<svg version="1.0" xmlns="http://www.w3.org/2000/svg"
 width="1280.000000pt" height="1008.000000pt" viewBox="0 0 1280.000000 1008.000000"
 preserveAspectRatio="xMidYMid meet">
<metadata>
Created by potrace 1.15, written by Peter Selinger 2001-2017
</metadata>
<g transform="translate(0.000000,1008.000000) scale(0.100000,-0.100000)"
fill="#000000" stroke="none">
<path d="M7222 10062 c-72 -23 -144 -87 -177 -159 -33 -71 -44 -207 -26 -305
52 -265 168 -546 655 -1572 81 -170 146 -310 144 -311 -4 -3 -339 -84 -513
-124 -443 -102 -942 -182 -1314 -211 -87 -6 -788 -10 -1947 -10 -1594 0 -1822
2 -1893 15 -242 46 -458 150 -895 429 -425 270 -593 337 -776 306 -250 -42
-394 -254 -457 -670 -16 -106 -17 -293 -21 -2395 -2 -1590 0 -2321 8 -2415 24
-303 89 -481 217 -601 81 -76 173 -110 304 -111 157 -2 312 64 694 293 411
246 653 358 885 411 l95 22 1680 4 c1697 3 1989 -1 2275 -33 373 -42 806 -126
1319 -256 195 -49 356 -91 358 -93 2 -1 -44 -129 -102 -282 -368 -971 -506
-1387 -534 -1614 -13 -99 -7 -145 26 -225 22 -52 35 -68 91 -108 62 -45 68
-47 131 -47 84 0 144 22 219 79 33 25 532 471 1109 991 576 519 1541 1388
2143 1929 1585 1426 1566 1408 1675 1529 158 177 214 301 201 452 -12 147 -62
257 -190 418 -28 35 -791 748 -1696 1585 -3371 3119 -3155 2922 -3260 2984
-172 103 -308 133 -428 95z"/>
</g>
</svg>
